<svg xmlns="http://www.w3.org/2000/svg" viewBox="0 0 900 600" width="900" height="600">
  <!-- Background -->
  <rect width="900" height="600" fill="#f8f9fa"/>
  
  <!-- Title -->
  <text x="450" y="30" text-anchor="middle" font-family="Arial, sans-serif" font-size="20" font-weight="bold" fill="#1a1a1a">OPeNDAP Architecture</text>
  
  <!-- Client Side Box -->
  <rect x="30" y="60" width="280" height="480" rx="8" fill="#e3f2fd" stroke="#1976d2" stroke-width="2"/>
  <text x="170" y="85" text-anchor="middle" font-family="Arial, sans-serif" font-size="16" font-weight="bold" fill="#1565c0">CLIENT SIDE</text>
  
  <!-- User Program -->
  <rect x="60" y="100" width="220" height="70" rx="6" fill="#fff" stroke="#1976d2" stroke-width="2"/>
  <text x="170" y="125" text-anchor="middle" font-family="Arial, sans-serif" font-size="14" font-weight="bold" fill="#1565c0">User Program</text>
  <text x="170" y="145" text-anchor="middle" font-family="Arial, sans-serif" font-size="11" fill="#333">nc_open(url, ...)</text>
  <text x="170" y="160" text-anchor="middle" font-family="Arial, sans-serif" font-size="11" fill="#333">nc_get_vara_float(...)</text>
  
  <!-- NetCDF Library -->
  <rect x="60" y="190" width="220" height="80" rx="6" fill="#fff" stroke="#1976d2" stroke-width="2"/>
  <text x="170" y="215" text-anchor="middle" font-family="Arial, sans-serif" font-size="14" font-weight="bold" fill="#1565c0">NetCDF-C Library</text>
  <text x="170" y="235" text-anchor="middle" font-family="Arial, sans-serif" font-size="11" fill="#333">DAP2/DAP4 Client</text>
  <text x="170" y="250" text-anchor="middle" font-family="Arial, sans-serif" font-size="11" fill="#333">HTTP Request Builder</text>
  <text x="170" y="265" text-anchor="middle" font-family="Arial, sans-serif" font-size="11" fill="#333">Response Translator</text>
  
  <!-- libcurl -->
  <rect x="60" y="290" width="220" height="50" rx="6" fill="#fff3e0" stroke="#f57c00" stroke-width="2"/>
  <text x="170" y="310" text-anchor="middle" font-family="Arial, sans-serif" font-size="13" font-weight="bold" fill="#e65100">libcurl</text>
  <text x="170" y="328" text-anchor="middle" font-family="Arial, sans-serif" font-size="10" fill="#333">HTTP/HTTPS Transport</text>
  
  <!-- Client Data -->
  <rect x="60" y="360" width="220" height="100" rx="6" fill="#f5f5f5" stroke="#9e9e9e" stroke-width="1" stroke-dasharray="5,5"/>
  <text x="170" y="380" text-anchor="middle" font-family="Arial, sans-serif" font-size="11" font-weight="bold" fill="#616161">Local Data</text>
  <text x="170" y="400" text-anchor="middle" font-family="Arial, sans-serif" font-size="10" fill="#333">• Metadata (DDS/DAS)</text>
  <text x="170" y="415" text-anchor="middle" font-family="Arial, sans-serif" font-size="10" fill="#333">• Subset Data Only</text>
  <text x="170" y="430" text-anchor="middle" font-family="Arial, sans-serif" font-size="10" fill="#333">• No Full File Download</text>
  <text x="170" y="445" text-anchor="middle" font-family="Arial, sans-serif" font-size="10" fill="#333">• Transparent Access</text>
  
  <!-- Internet/Network -->
  <rect x="340" y="200" width="100" height="140" rx="8" fill="#e8f5e9" stroke="#4caf50" stroke-width="2"/>
  <text x="390" y="230" text-anchor="middle" font-family="Arial, sans-serif" font-size="13" font-weight="bold" fill="#2e7d32">INTERNET</text>
  <text x="390" y="255" text-anchor="middle" font-family="Arial, sans-serif" font-size="11" fill="#333">HTTP Protocol</text>
  <text x="390" y="275" text-anchor="middle" font-family="Arial, sans-serif" font-size="10" fill="#666">DAP2/DAP4</text>
  <text x="390" y="295" text-anchor="middle" font-family="Arial, sans-serif" font-size="10" fill="#666">Constraint</text>
  <text x="390" y="310" text-anchor="middle" font-family="Arial, sans-serif" font-size="10" fill="#666">Expressions</text>
  
  <!-- Server Side Box -->
  <rect x="470" y="60" width="400" height="480" rx="8" fill="#fce4ec" stroke="#c2185b" stroke-width="2"/>
  <text x="670" y="85" text-anchor="middle" font-family="Arial, sans-serif" font-size="16" font-weight="bold" fill="#ad1457">SERVER SIDE (Hyrax)</text>
  
  <!-- OPeNDAP Server -->
  <rect x="500" y="100" width="340" height="90" rx="6" fill="#fff" stroke="#c2185b" stroke-width="2"/>
  <text x="670" y="125" text-anchor="middle" font-family="Arial, sans-serif" font-size="14" font-weight="bold" fill="#ad1457">OPeNDAP Server (Hyrax)</text>
  <text x="670" y="148" text-anchor="middle" font-family="Arial, sans-serif" font-size="11" fill="#333">• HTTP Request Handler</text>
  <text x="670" y="165" text-anchor="middle" font-family="Arial, sans-serif" font-size="11" fill="#333">• Constraint Expression Parser</text>
  <text x="670" y="182" text-anchor="middle" font-family="Arial, sans-serif" font-size="11" fill="#333">• DAP Response Builder</text>
  
  <!-- Data Handlers -->
  <rect x="500" y="205" width="160" height="80" rx="6" fill="#fff" stroke="#c2185b" stroke-width="1"/>
  <text x="580" y="225" text-anchor="middle" font-family="Arial, sans-serif" font-size="12" font-weight="bold" fill="#ad1457">Data Handlers</text>
  <text x="580" y="245" text-anchor="middle" font-family="Arial, sans-serif" font-size="10" fill="#333">netCDF Handler</text>
  <text x="580" y="260" text-anchor="middle" font-family="Arial, sans-serif" font-size="10" fill="#333">HDF5 Handler</text>
  <text x="580" y="275" text-anchor="middle" font-family="Arial, sans-serif" font-size="10" fill="#333">GRIB Handler</text>
  
  <!-- Format Transcoders -->
  <rect x="680" y="205" width="160" height="80" rx="6" fill="#fff" stroke="#c2185b" stroke-width="1"/>
  <text x="760" y="225" text-anchor="middle" font-family="Arial, sans-serif" font-size="12" font-weight="bold" fill="#ad1457">Transcoders</text>
  <text x="760" y="245" text-anchor="middle" font-family="Arial, sans-serif" font-size="10" fill="#333">DAP2 &lt;-&gt; DAP4</text>
  <text x="760" y="260" text-anchor="middle" font-family="Arial, sans-serif" font-size="10" fill="#333">Binary -&gt; ASCII</text>
  <text x="760" y="275" text-anchor="middle" font-family="Arial, sans-serif" font-size="10" fill="#333">Format Normalizer</text>
  
  <!-- Data Files -->
  <rect x="500" y="300" width="340" height="110" rx="6" fill="#f3e5f5" stroke="#7b1fa2" stroke-width="2"/>
  <text x="670" y="325" text-anchor="middle" font-family="Arial, sans-serif" font-size="13" font-weight="bold" fill="#6a1b9a">Local Data Files</text>
  
  <!-- File types -->
  <rect x="515" y="340" width="100" height="25" rx="4" fill="#fff" stroke="#7b1fa2" stroke-width="1"/>
  <text x="565" y="357" text-anchor="middle" font-family="Arial, sans-serif" font-size="10" fill="#333">netCDF (.nc)</text>
  
  <rect x="625" y="340" width="100" height="25" rx="4" fill="#fff" stroke="#7b1fa2" stroke-width="1"/>
  <text x="675" y="357" text-anchor="middle" font-family="Arial, sans-serif" font-size="10" fill="#333">HDF5 (.h5)</text>
  
  <rect x="735" y="340" width="90" height="25" rx="4" fill="#fff" stroke="#7b1fa2" stroke-width="1"/>
  <text x="780" y="357" text-anchor="middle" font-family="Arial, sans-serif" font-size="10" fill="#333">HDF4 (SD)</text>
  
  <rect x="515" y="375" width="100" height="25" rx="4" fill="#fff" stroke="#7b1fa2" stroke-width="1"/>
  <text x="565" y="392" text-anchor="middle" font-family="Arial, sans-serif" font-size="10" fill="#333">GRIB</text>
  
  <rect x="625" y="375" width="100" height="25" rx="4" fill="#fff" stroke="#7b1fa2" stroke-width="1"/>
  <text x="675" y="392" text-anchor="middle" font-family="Arial, sans-serif" font-size="10" fill="#333">Compressed (.gz)</text>
  
  <rect x="735" y="375" width="90" height="25" rx="4" fill="#fff" stroke="#7b1fa2" stroke-width="1"/>
  <text x="780" y="392" text-anchor="middle" font-family="Arial, sans-serif" font-size="10" fill="#333">Other Formats</text>
  
  <!-- URL Examples -->
  <rect x="500" y="425" width="340" height="100" rx="6" fill="#fff8e1" stroke="#ffa000" stroke-width="1"/>
  <text x="670" y="445" text-anchor="middle" font-family="Arial, sans-serif" font-size="12" font-weight="bold" fill="#e65100">Example URLs &amp; Endpoints</text>
  <text x="515" y="470" font-family="Courier New, monospace" font-size="9" fill="#333">http://server/data.nc</text>
  <text x="515" y="485" font-family="Courier New, monospace" font-size="9" fill="#666">.dds - Structure</text>
  <text x="515" y="498" font-family="Courier New, monospace" font-size="9" fill="#666">.das - Attributes</text>
  <text x="670" y="470" font-family="Courier New, monospace" font-size="9" fill="#333">?var[0:9][0:99] - Subset</text>
  <text x="670" y="485" font-family="Courier New, monospace" font-size="9" fill="#666">.dods - Binary data</text>
  <text x="670" y="498" font-family="Courier New, monospace" font-size="9" fill="#666">.ascii - Text data</text>
  
  <!-- Simple arrows without markers -->
  <!-- Vertical arrows -->
  <line x1="170" y1="170" x2="170" y2="190" stroke="#1976d2" stroke-width="2"/>
  <polygon points="170,190 165,182 175,182" fill="#1976d2"/>
  
  <line x1="170" y1="270" x2="170" y2="290" stroke="#1976d2" stroke-width="2"/>
  <polygon points="170,290 165,282 175,282" fill="#1976d2"/>
  
  <!-- Request path -->
  <line x1="280" y1="315" x2="340" y2="270" stroke="#4caf50" stroke-width="2"/>
  <polygon points="340,270 332,268 334,277" fill="#4caf50"/>
  
  <line x1="440" y1="270" x2="500" y2="145" stroke="#4caf50" stroke-width="2"/>
  <polygon points="500,145 492,147 496,138" fill="#4caf50"/>
  
  <!-- Response path (dashed) -->
  <line x1="500" y1="160" x2="440" y2="250" stroke="#666" stroke-width="2" stroke-dasharray="5,5"/>
  <polygon points="440,250 444,242 436,244" fill="#666"/>
  
  <line x1="340" y1="250" x2="280" y2="315" stroke="#666" stroke-width="2" stroke-dasharray="5,5"/>
  <polygon points="280,315 284,307 276,309" fill="#666"/>
  
  <!-- Server internal arrows -->
  <line x1="670" y1="190" x2="580" y2="205" stroke="#c2185b" stroke-width="1"/>
  <polygon points="580,205 587,202 585,211" fill="#c2185b"/>
  
  <line x1="670" y1="190" x2="760" y2="205" stroke="#c2185b" stroke-width="1"/>
  <polygon points="760,205 753,202 755,211" fill="#c2185b"/>
  
  <line x1="580" y1="285" x2="580" y2="300" stroke="#c2185b" stroke-width="1"/>
  <polygon points="580,300 577,293 583,293" fill="#c2185b"/>
  
  <line x1="760" y1="285" x2="760" y2="300" stroke="#c2185b" stroke-width="1"/>
  <polygon points="760,300 757,293 763,293" fill="#c2185b"/>
  
  <!-- Legend -->
  <rect x="30" y="555" width="840" height="35" rx="4" fill="#fff" stroke="#bdbdbd" stroke-width="1"/>
  <text x="45" y="575" font-family="Arial, sans-serif" font-size="11" font-weight="bold" fill="#333">Key Features:</text>
  <text x="150" y="575" font-family="Arial, sans-serif" font-size="10" fill="#333">Server-side subsetting reduces bandwidth</text>
  <text x="370" y="575" font-family="Arial, sans-serif" font-size="10" fill="#333">Multiple format support (netCDF, HDF5, GRIB)</text>
  <text x="620" y="575" font-family="Arial, sans-serif" font-size="10" fill="#333">Transparent to client code</text>
</svg>
